<?xml version="1.0" encoding="utf-8"?>
<!-- Generator: Adobe Illustrator 18.0.0, SVG Export Plug-In . SVG Version: 6.00 Build 0)  -->
<!DOCTYPE svg PUBLIC "-//W3C//DTD SVG 1.1//EN" "http://www.w3.org/Graphics/SVG/1.1/DTD/svg11.dtd">
<svg version="1.1" id="Layer_1" xmlns="http://www.w3.org/2000/svg" xmlns:xlink="http://www.w3.org/1999/xlink" x="0px" y="0px"
	 viewBox="0 0 404.2 500" enable-background="new 0 0 404.2 500" xml:space="preserve">
<g>
	<g>
		<path fill="#F9D613" d="M128.4,451.7l-8.1,20.8l-6.3-16.4l-6.4,16.4l-8.1-20.8L128.4,451.7z M107.6,463.4l3.1-8.3h-6.2
			L107.6,463.4z M120.2,463.4l3.1-8.3h-6.2L120.2,463.4z"/>
		<path fill="#F9D613" d="M130.5,458.9c0-4.1,3.4-7.5,7.5-7.5s7.5,3.4,7.5,7.5s-3.4,7.5-7.5,7.5S130.5,463,130.5,458.9z
			 M144.6,471.9h-13.3v-3.4h13.3V471.9z M133.8,458.9c0,2.3,1.8,4.2,4.2,4.2c2.3,0,4.2-1.8,4.2-4.2c0-2.3-1.8-4.2-4.2-4.2
			C135.7,454.7,133.8,456.6,133.8,458.9z"/>
		<path fill="#F9D613" d="M162.2,468.5v3.4h-10.9v-20.2h3.4v16.8H162.2z"/>
		<path fill="#F9D613" d="M181.6,451.7v3.4h-13.5v-3.4H181.6z M168.1,460.1h13.5v3.4h-10.1v8.4h-3.4V460.1z"/>
		<path fill="#F9D613" d="M216.6,451.7l-8.1,20.8l-6.3-16.4l-6.4,16.4l-8.1-20.8L216.6,451.7z M195.8,463.4l3.1-8.3h-6.2
			L195.8,463.4z M208.4,463.4l3.1-8.3h-6.2L208.4,463.4z"/>
		<path fill="#F9D613" d="M221.7,451.7h3.4v20.2h-3.4V451.7z"/>
		<path fill="#F9D613" d="M240.6,454.8v3.9h5.1v3.1h-5.1v10.1h-3.4v-10.1h-5.1v-3.1h5.1v-3.9h-5.1v-3.1h13.5v3.1H240.6z"/>
		<path fill="#F9D613" d="M265.1,451.7v13.5h-3.4v-5.1h-5.1v5.1h-3.4v-13.5h3.4v5.1h5.1v-5.1H265.1z M265.1,468.5h-11.8v3.4h11.8
			V468.5z"/>
		<path fill="#F9D613" d="M272.1,451.7h3.4v20.2h-3.4V451.7z"/>
		<path fill="#F9D613" d="M299.3,451.7v20.2h-3.4l-5-7.1l-5.1,7.1h-3.4v-20.2h3.4l10.1,14.4v-14.4H299.3z M288.8,461.9l-3-4.3v8.6
			L288.8,461.9z"/>
	</g>
	<path fill="#F9D613" d="M308.5,432.3l-4-2.3v2l-4.4-2.6v2h-84.8l-5.6-5.6l-2.8,2.8l-4.8-4.8l-4.8,4.8l-2.8-2.8l-5.6,5.6h-83.8v-2
		l-4.4,2.6v-2l-4,2.3l4,2.3v-2l4.4,2.6v-2h83.8l5.6,5.6l2.8-2.8l4.8,4.8l4.8-4.8l2.8,2.8l5.6-5.6h84.8v2l4.4-2.6v2L308.5,432.3z
		 M194.5,436.3l-4-4l4-4l1.6,1.6l-2.4,2.4l2.4,2.4L194.5,436.3z M196.1,432.3l6-6l6,6l-6,6L196.1,432.3z M209.7,436.3l-1.6-1.6
		l2.4-2.4l-2.4-2.4l1.6-1.6l4,4L209.7,436.3z"/>
	<path fill="#F9D613" d="M308.5,491.6l-4-2.3v2l-4.4-2.6v2h-84.8l-5.6-5.6l-2.8,2.8l-4.8-4.8l-4.8,4.8l-2.8-2.8l-5.6,5.6h-83.8v-2
		l-4.4,2.6v-2l-4,2.3l4,2.3v-2l4.4,2.6v-2h83.8l5.6,5.6l2.8-2.8l4.8,4.8l4.8-4.8l2.8,2.8l5.6-5.6h84.8v2l4.4-2.6v2L308.5,491.6z
		 M194.5,495.5l-4-4l4-4l1.6,1.6l-2.4,2.4l2.4,2.4L194.5,495.5z M196.1,491.6l6-6l6,6l-6,6L196.1,491.6z M209.7,495.5l-1.6-1.6
		l2.4-2.4l-2.4-2.4l1.6-1.6l4,4L209.7,495.5z"/>
</g>
<g>
	<path fill="#F9D613" d="M136.3,154.7h10.6l15.4,5.4l0.7-1.6l-15.5-8.4h-11.3l-14.4,4.2l0.3,1.7L136.3,154.7z M136.4,151.8H147
		l5.7,3.1l-5.5-1.9h-11l-5.5,0.5L136.4,151.8z"/>
	<path fill="#F9D613" d="M225.5,247.3L213.3,280l-11.2-1.6l-11.2,1.6l-12.2-32.7l-4.4,3.1l-3.1,38.7l7.7,10.8L196,311h12.2
		l17.1-11.1l7.7-10.8l-3.1-38.7L225.5,247.3z M226.6,250.9l1.1,0.7l2.2,27.8l-6.6-19.7L226.6,250.9z M176.5,251.6l1.1-0.7l3.3,8.8
		l-6.6,19.7L176.5,251.6z M173.6,288.6l8.5-25.4l6.6,17.6l-11.3,8l0.8,6.3L173.6,288.6z M195.3,307.8l-6.6-4.2l6.8,0.9L195.3,307.8z
		 M208.7,304.6l6.8-0.9l-6.6,4.2L208.7,304.6z M220.2,300.6l-13.9,1.9l0.4,6.1h-9.1l0.4-6.1l-13.9-1.9l-3-1.9l-1.1-8.9l10.6-7.5
		l11.5-1.7l11.5,1.7l10.6,7.5l-1.1,8.9L220.2,300.6z M215.5,280.8l6.6-17.6l8.5,25.4L226,295l0.8-6.3L215.5,280.8z"/>
	<path fill="#F9D613" d="M257.3,154.7h10.6l14.2,1.3l0.3-1.7l-14.4-4.2h-11.3l-15.5,8.4l0.7,1.6L257.3,154.7z M257.2,151.8h10.6
		l5.6,1.6l-5.4-0.5l-11,0l-5.5,1.9L257.2,151.8z"/>
	<path fill="#F9D613" d="M404.2,396.4L390.8,380l9.6-12l-18-8.3l7.6-22.3l-5.7-6.2l-6-26.6l4.5-2.5l-14.7-23.5l2.4-6.4l-12.1-15
		l8.4-22.3l5.6-3.5l-16.8-29.7l4.9-0.9l-6-17.2l5.9-10.1l-21.7-36.9l8.2-26.6l-14.4-8.9l16.2-40.9l6.5-53l-8-7.1l-43.7,22.6
		l-51.6,13.8l-27.6-7.1H180l-27.6,7.1l-51.6-13.8L57.1,0l-8,7.1l6.5,53L71.8,101l-14.4,8.9l8.2,26.6L44,173.4l5.9,10.1l-6,17.2
		l4.9,0.9l-16.8,29.7l5.6,3.5l8.4,22.3l-12.1,15l2.4,6.4l-14.7,23.5l4.5,2.5l-6,26.6l-5.7,6.2l7.6,22.3l-18,8.3l9.6,12L0,396.4
		l26.7,10.4l12-11.2l15,2.9l0,0l26.4,20l18.6-21.2l43.6-1.9l32.9,16.3l27,5.9l26.8-5.8l0.1,0l32.9-16.3l43.6,1.9l18.6,21.2l26.4-20
		l0,0l15.5-2.8l11.5,11.1L404.2,396.4z M400.4,395.4l-20.4,7.9l9.6-21.1L400.4,395.4z M396.7,368.9l-8.2,10.2l-21.8,13.4l-8.1-18.6
		l5.4-16.5l16.5,3.9L396.7,368.9z M335.6,362.8l17.3-11.2l4.1-7.5l5,12.1l-12.2,37L335.6,362.8z M54.4,393.2l-12.2-37l5-12.1
		l4.2,7.1l17.2,11.5L54.4,393.2z M45.2,315.3l-1.6,5.1l18.9-5l-10.2,32.9l-17.7-29.8l5.5-6L45.2,315.3z M61.5,270.7l1.9,12.9
		l17.1,8.1l-1.8,10.3l2.7,6.1l-34.4,9.2L61.5,270.7z M68.1,136.7l5.8-32l10,16l-16.1,44.1L68.1,136.7z M98.6,30.3l0.1,0.1l21,7.2
		l13,13.9l-2.4,13.5L118,72.5L98.5,45L77.4,34.7l-4.6,5l2.4,18.4l0,0.2l12.9,31l-11.6-4.3L63.4,54.6l-4.9-35.3l5.8-5.7l19.8,7
		L98.6,30.3z M165.3,51.1l-51-22.5l37.5,10L165.3,51.1z M202.1,80.7l15.2-24.1l13,17.6l-28.2,15.9L174,74.2l13-17.6L202.1,80.7z
		 M189.1,53.6l3.1-4.2l9.9,11.3l9.9-11.3l3.1,4.2l-13,20.6L189.1,53.6z M252.4,38.6l37.4-10l-50.9,22.5L252.4,38.6z M304.2,24.8
		l24.5-12.7l-24.2,16.1l-21.2,7.3L269,50.7l2.3,12.6l-14.2-8.8l-0.5-8.6L304.2,24.8L304.2,24.8z M336.2,136.7l0.4,28.1l-16.1-44.1
		l10-16L336.2,136.7z M357.2,317.1l-34.4-9.2l2.7-6.1l-1.8-10.3l17.1-8.1l1.9-12.9L357.2,317.1z M364.1,312.5l5.5,6l-17.7,29.8
		l-10.2-32.9l18.9,5l-1.6-5.1L364.1,312.5z M311.6,335.3l18,3.4l3.2,22.6l-12,0.6L311.6,335.3z M83.4,361.9l-12-0.6l3.2-22.6l18-3.4
		L83.4,361.9z M74.3,336.4l-8.5-21.9l15.3-4.1l-6.1,13.6l16.1,9.2L74.3,336.4z M72.4,337.9l-3.2,22.6L54,350.7l10.3-33.4L72.4,337.9
		z M77.9,323.1l5.2-11.6l8.8,19.5L77.9,323.1z M84.8,280.1l17.5-17.5l-1.1,26.4l20.7-15l-2.1,21.3l-38.5,5L84.8,280.1z M67.6,171.8
		l18.5-50.7l32-46l12.7-7.8l5.3,12.2l16.5-14.7l46.9,26.5l-38.8,16.8l13.7,34.5l-2.6,16.7l-7.1-13.4l-12.9-9.9l-26.1-12l-13.3,10.2
		v-6.9l10.2-30.5l-20.8,23.2l-0.2,0.2l-7.8,24l9.1-0.7l2.2,29.9l-32.1,31.3l-5.7-1.6L67.6,171.8z M98.8,49l16.5,23.6l-19.7-4.8
		L98.8,49z M96.8,46.9l-6.9,40.2L77.6,57.6l-2.1-16.1L96.8,46.9z M76.2,39.4l1.7-1.9l9.7,4.7L76.2,39.4z M95.2,70.1l19.2,4.7
		L92,88.6L95.2,70.1z M251.6,64.8l16.5,14.7l5.3-12.2l12.7,7.8l32,46l18.5,50.7l0.4,31.1l-5.7,1.6l-32.1-31.3l2.2-29.9l9.1,0.7
		l-7.8-24l-21-23.4l10.2,30.5v6.9l-13.3-10.2l-26.1,12l-12.9,9.9l-7.1,13.4l-2.6-16.7l13.6-34.5l-38.8-16.8L251.6,64.8z M254.3,46.9
		l0.5,9l16.6,10.2l-4.2,9.6L251.9,62l-8.1,4.6l-8.4-11.4L254.3,46.9z M312.2,88.6l-22.4-13.8l19.2-4.7L312.2,88.6z M307.4,46.9
		l21.4-5.4l-2.1,16.1l-12.3,29.5L307.4,46.9z M316.6,42.2l9.7-4.7l1.7,1.9L316.6,42.2z M308.7,67.8l-19.7,4.8L305.4,49L308.7,67.8z
		 M322.9,300.4l-38.5-4.7l-2.1-21.6l20.7,15l-1.1-26.4l17.5,17.5L322.9,300.4z M202.1,353.3l-6.8,18.1L141,333.3l9.6-35.9l5.7,25.9
		l21.5,11.7h0l14.4,7.8h19.7l14.4-7.8h0l21.5-11.7l5.7-25.9l9.6,35.9l-54.3,38.1L202.1,353.3z M142.2,284.3l7,8.2l-30.9,41.2l6-60.2
		L142.2,284.3z M87.4,210.9l19-20.8l-16.6,28.7L87.4,210.9z M106.4,160.6l-1.3-18.1l20.9-16l14.4,6.5l-14.5-3l-17.6,12.9
		L106.4,160.6z M103.5,140.9l-6.4,0.5l6.6-20.2l13.2-14.7l-6.8,20.3v9.1L103.5,140.9z M151,138.2l11.9,9.1l4,7.5L149.6,142
		L151,138.2z M110.5,144.2l16-11.7l22.4,4.7l-2,5.6l22.5,16.8l5.8,10.9l-3.7,35.3l-2-29.6l-7.4-10.2l-46.4-8.5l-0.8,6.7l9.7,5.8
		l15.4,17.5l28.5,8.1l0.1,1.9l-47.2-7.6l-13.9-16.7L110.5,144.2z M202.1,92.8L202.1,92.8l8.5,3.6l14,31.1l-7.2,20l-2.7-11.4
		l-12.6-6.6l-12.6,6.6l-2.7,11.4l-7.2-20l14-31.1L202.1,92.8L202.1,92.8z M300.8,140.9l-6.6-5v-9.1l-6.8-20.3l13.2,14.7l6.6,20.2
		L300.8,140.9z M299.1,142.5l-1.3,18.1l-1.9-17.7l-17.6-12.9l-14.5,3l14.4-6.5L299.1,142.5z M254.6,142l-17.2,12.9l4-7.5l11.9-9.1
		L254.6,142z M234.9,159.7l22.5-16.8l-2-5.6l22.4-4.7l16,11.7l3.1,29.1l-13.9,16.7l-47.2,7.6l0.1-1.9l28.5-8.1l15.4-17.5l9.7-5.8
		l-0.8-6.7l-46.4,8.5l-7.4,10.2l-2,29.6l-3.7-35.3L234.9,159.7z M314.5,218.8l-16.6-28.7l19,20.8L314.5,218.8z M225.8,332.7h-47.4
		l-20.1-10.9l-11-49.4l-21.9-11.3L102,207.5l63.6,40.6l24.9-105.8l11.6,57.6l11.6-57.6L238.6,248l63.6-40.6l-23.5,53.6l-21.9,11.3
		l-4.4,19.6l0,0l-6.6,29.8L225.8,332.7z M221.5,335l-10.2,5.5h-18.5l-10.2-5.5H221.5z M117.8,189.4l-7.6-1.2l2.7-4.7L117.8,189.4z
		 M109,190.3l51.1,8.2l-58.6,4.6L109,190.3z M134,202.9l26.7,39.3l-57.8-36.8L134,202.9z M164.3,243.3l-27.6-40.7l32-2.5l1.3,19.1
		L164.3,243.3z M191.9,137.4l10.3-5.4l10.3,5.4l-10.3,50.7L191.9,137.4z M291.3,183.5l2.7,4.7l-7.6,1.2L291.3,183.5z M295.3,190.3
		l7.4,12.8l-58.6-4.6L295.3,190.3z M301.3,205.3l-57.8,36.8l26.7-39.3L301.3,205.3z M235.5,200.1l32,2.5l-27.6,40.7l-5.7-24.1
		L235.5,200.1z M258.9,273.9l16-8.3l-19.3,22.6L258.9,273.9z M305,207l8.1,14l-29.2,34.2L305,207z M256.9,165.7c1.1,1,1.7,2.5,1.7,4
		c0,3-2.5,5.5-5.5,5.5c-3,0-5.5-2.5-5.5-5.5c0-0.8,0.2-1.7,0.6-2.4L256.9,165.7z M253.1,176.9c4,0,7.2-3.2,7.2-7.2
		c0-1.4-0.4-2.7-1.1-3.8c3.6,2,5.8,5.7,5.8,9.9c0,6.2-5.1,11.3-11.3,11.3c-6.2,0-11.3-5.1-11.3-11.3c0-3,1.3-6,3.4-8.1l0.2,0
		c-0.2,0.7-0.3,1.3-0.3,2C245.9,173.7,249.1,176.9,253.1,176.9z M261.8,164.8l24.8-4.6l0.3,2.8l-8.8,5.2l-12.6,14.3
		c1.1-2,1.8-4.3,1.8-6.7C267.4,171.3,265.3,167.3,261.8,164.8z M250.6,189l-14.6,4.1l1.1-16.1l3.8-5.2c-0.4,1.3-0.6,2.6-0.6,3.9
		C240.2,182.2,244.7,187.5,250.6,189z M226.7,170.1l3.3,31.1l-11.7-49.7l8.7-24.3l-13.3-29.6l26.8,11.6l-13.1,33l3.2,20.4
		L226.7,170.1z M177.1,127.3l8.7,24.3l-11.7,49.7l3.3-31.1l-3.9-7.4l3.2-20.4l-13.1-33l26.8-11.6L177.1,127.3z M158.2,167.7
		c2.2,2.1,3.4,5,3.4,8.1c0,6.2-5.1,11.3-11.3,11.3c-6.2,0-11.3-5.1-11.3-11.3c0-4.2,2.2-7.9,5.8-9.9c-0.7,1.1-1.1,2.4-1.1,3.8
		c0,4,3.2,7.2,7.2,7.2c4,0,7.2-3.2,7.2-7.2c0-0.7-0.1-1.4-0.3-2L158.2,167.7z M156,167.3c0.4,0.7,0.6,1.6,0.6,2.4
		c0,3-2.5,5.5-5.5,5.5c-3,0-5.5-2.5-5.5-5.5c0-1.5,0.6-3,1.7-4L156,167.3z M136.8,175.8c0,2.4,0.6,4.7,1.8,6.7L126,168.2l-8.8-5.2
		l0.3-2.8l24.8,4.6C138.9,167.3,136.8,171.3,136.8,175.8z M164,175.8c0-1.3-0.2-2.7-0.6-3.9l3.8,5.2l1.1,16.1l-14.6-4.1
		C159.6,187.5,164,182.2,164,175.8z M99.3,207l21.1,48.2L91.1,221L99.3,207z M145.3,273.9l3.2,14.3l-19.3-22.6L145.3,273.9z
		 M262,284.3l17.9-10.8l6,60.2L255,292.5L262,284.3z M283,271.7l16.6-10l1,22.7L283,271.7z M266.8,278.8l45.8-53.6l-5.1,17.1
		l1.2,11.3L266.8,278.8z M310.8,251.3l-1-8.9l9.6-32.2L293,181.4l5.1-6.1l42.2,41.3L310.8,251.3z M106.1,175.3l5.1,6.1l-26.4,28.8
		l9.6,32.2l-1,8.9l-29.5-34.7L106.1,175.3z M91.6,225.2l45.8,53.6l-41.9-25.3l1.2-11.3L91.6,225.2z M121.2,271.7l-17.5,12.7l1-22.7
		L121.2,271.7z M82,302.6l37.6-4.9l-3.8,38.5l-11.6-3.4L82,302.6z M148,298l-9.6,36.1l0.1,0.1l-1.7,41.3l-18.7-37.7L148,298z
		 M140.7,338.6l21.2,45.5l-22.9-5L140.7,338.6z M194.5,373.7l-7.7,20.5L145,339L194.5,373.7z M202.1,359.9l13.7,36.5l-13.7,18.1
		l-13.7-18.1L202.1,359.9z M217.4,394.2l-7.7-20.5l49.4-34.7L217.4,394.2z M265.2,379.1l-22.9,5l21.2-45.5L265.2,379.1z
		 M267.4,375.5l-1.7-41.3l0.1-0.1l-9.6-36.1l29.9,39.9L267.4,375.5z M288.4,336.2l-3.8-38.2l37.5,4.6L300,332.8L288.4,336.2z
		 M329.9,336.4l-16.8-3.1l16.1-9.2l-6.1-13.6l15.3,4.1L329.9,336.4z M326.3,323.1l-14,7.9l8.8-19.5L326.3,323.1z M331.9,337.9
		l8-20.6l10.3,33.4l-15.2,9.8L331.9,337.9z M338.7,282l-15.4,7.3l-1.8-10.3L303,260.4l35.2-7.3l5.3-3.3L338.7,282z M336.7,251
		l-29.7,6.2l3.7-2.2l29.6-34.8L336.7,251z M333.2,206.4l4.2-1.2l2.2,7.4L333.2,206.4z M319.1,118.5l-28-40.3l38.3,23.7L319.1,118.5z
		 M328.9,58.2l2.5-18.6l-4.6-5L305.7,45l-19.5,27.5l-12.3-7.6l-2.4-13.5l13-13.9l21-7.2l14.6-9.7l19.8-7l5.8,5.7l-4.9,35.3
		l-13.2,30.2L316,89.2L328.9,58.2z M240.8,68.2l-7.5,4.3l-14-19.1l4.9-7.8L240.8,68.2z M170.9,72.5l-7-4l16.2-22.9l4.9,7.8
		L170.9,72.5z M149.3,55.8l0.5-9l19.1,8.5l-8.1,11.5l-8.6-4.9l-15.3,13.7l-4.2-9.6l16.1-9.9L149.3,55.8z M113.2,78.2l-28,40.3
		l-10.3-16.6L113.2,78.2z M71,206.4l-6.4,6.2l2.2-7.4L71,206.4z M93.5,255l3.7,2.2L67.5,251l-3.6-30.8L93.5,255z M66,253l35.2,7.3
		l-18.6,18.5l-1.8,10.3L65.5,282l-4.7-32.3L66,253z M83,364.2l-5.5,33.3l-6.1-33.9L83,364.2z M78.8,404.3l5.9-36l12,27.7l-16.1,18.4
		L78.8,404.3z M85.2,363.7l9.3-26.7l6.5,14.4l-3.6,40.3L85.2,363.7z M103.1,353.8l34.2,36.6l-35.9-17.8L103.1,353.8z M101.2,375
		l36.8,18.3L99.4,395L101.2,375z M103.1,350.5l-17.7-39.3l17.4,23.6l13.2,3.9l20.7,41.8l3,9.2L103.1,350.5z M139.5,381.6l23.6,5.1
		l10,21.4l-29.7-14.7L139.5,381.6z M145.4,343.2l53.9,71.4l-23-5L145.4,343.2z M258.9,343.2l-31,66.4l-23,5L258.9,343.2z
		 M241.1,386.8l23.6-5.1l-3.9,11.9l-29.7,14.7L241.1,386.8z M267.5,380.5l20.7-41.8l13.2-3.9l17.4-23.6l-17.7,39.3l-36.6,39.2
		L267.5,380.5z M301.1,353.8l1.7,18.7L267,390.4L301.1,353.8z M303,375l1.8,20l-38.6-1.7L303,375z M303.2,351.3l6.5-14.4l9.3,26.7
		l-12.1,27.9L303.2,351.3z M319.5,368.3l5.9,36l-1.8,10.1L307.5,396L319.5,368.3z M326.6,397.5l-5.5-33.3l11.6-0.6L326.6,397.5z
		 M380.2,359l-16-3.8l-5.6-13.5l12.7-21.4l16.1,17.6L380.2,359z M381.2,327.8l-15-16.4l10.1-5.6L381.2,327.8z M379.6,301.3
		l-21.3,11.8l-1.3-4.3l10.1-27.4L379.6,301.3z M367.9,272.6l-12,32.5l-11.5-37l7.8,5.2l5.2-13.7L367.9,272.6z M351.1,269.8l-7.5-5
		l2.5-16.8l17.5-11.1L351.1,269.8z M369.3,230.6l-30.1,19.1l3.9-33.3l-3.5-11.7l13.5-2.6L369.3,230.6z M340.8,202.1l11.9-16.3
		l4.6,13.1L340.8,202.1z M352.1,182.7l-12.8,17.6l-0.8-59.4l19,32.4L352.1,182.7z M337.6,131.7l-5.1-27.9l11.5,7.1L337.6,131.7z
		 M346.4,59.5l-15.9,40.3l-13.6-8.4l12.5-4.7L343,55.4l0.1-0.1l5.1-36.8l-7.7-7.5L328,15.4l18.8-12.5l5.8,5.2L346.4,59.5z
		 M180.3,31.6h43.6l25.5,6.6l-15.7,14.6l-9.8-13.3l-6.9,11l-4.8-6.6l-10.1,11.6L192,43.9l-4.8,6.6l-6.9-11L170.7,53l-15.9-14.8
		L180.3,31.6z M100,24.8L100,24.8l47.7,21.1l-0.5,8.6l-14.2,8.8l2.3-12.6L121,35.5l-21.2-7.3L75.5,12.1L100,24.8L100,24.8z
		 M57.9,59.5L51.6,8l5.8-5.2l18.8,12.5l-12.5-4.4L56,18.5l5.1,36.8l13.8,31.4l12.5,4.7l-13.6,8.4L57.9,59.5z M71.7,103.8l-5.1,27.9
		l-6.4-20.8L71.7,103.8z M65.7,140.9l-0.8,59.4l-12.8-17.6l-5.4-9.3L65.7,140.9z M51.5,185.8l11.9,16.3l-16.5-3.2L51.5,185.8z
		 M51.1,202.1l13.5,2.6l-3.5,11.7l3.9,33.3l-30.1-19.1L51.1,202.1z M58.2,248.1l2.5,16.8l-7.5,5L40.7,237L58.2,248.1z M46.8,259.7
		l5.2,13.7l7.8-5.2l-11.5,37l-12-32.5L46.8,259.7z M37.1,281.4l10.1,27.4l-1.3,4.3l-21.3-11.8L37.1,281.4z M28,305.8l10.1,5.6
		l-15,16.4L28,305.8z M16.9,338L33,320.4l12.7,21.4l-5.6,13.5L24,359L16.9,338z M23.7,361.5l16.5-3.9l5.4,16.5l-8.1,18.6l-21.8-13.4
		l-8.2-10.2L23.7,361.5z M14.6,382.2l9.6,21.1l-20.4-7.9L14.6,382.2z M26.8,403.5L17.5,383l18.6,11.5L26.8,403.5z M39.6,393.4
		l7-16.1l6.2,18.7L39.6,393.4z M69.6,366.2l8.7,48.1l-23-17.5L69.6,366.2z M326,414.3l8.7-48.1l14.4,30.6L326,414.3z M351.4,396
		l6.2-18.7l7,16.1L351.4,396z M386.7,383l-9.3,20.5l-9.3-9L386.7,383z"/>
</g>
</svg>
