<svg xmlns="http://www.w3.org/2000/svg" viewBox="0 0 250.4 164.7">
  <g fill="#424135">
    <path d="M57.9 45.5v6.8h8.8v5.3h-8.8v17.5H52V57.6h-8.8v-5.3H52v-6.8h-8.8V40h23.4v5.5h-8.7zM99.3 40.1v23.4h-5.8v-8.8h-8.8v8.8h-5.9V40.1h5.9v8.8h8.8v-8.8h5.8zm0 29.1H78.9v5.9h20.4v-5.9zM130.5 71h-12.3l-1.5 4h-6.3l14-36 14 36H132l-1.5-4zm-10.4-5h8.5l-4.2-12.2-4.3 12.2zM175.4 40.1v35h-5.9l-8.6-12.4-8.8 12.4h-5.9v-35h5.9L169.6 65V40.1h5.8zm-18 17.6l-5.2-7.5V65l5.2-7.3zM197.4 57.9L212 75.1h-7.7l-10.8-13.3-3.3 3.7v9.6h-5.9v-35h5.9v17.7l14.4-17.7h7.3l-14.5 17.8z"/>
  </g>
  <g fill="#424135">
    <path d="M105.1 90.1L92 108.5V125h-5.8v-16.6L73 90.1h32.1zm-11.3 5.8h-9.5l4.8 6.6 4.7-6.6zM110.9 102.6c0-7.2 5.8-13 13-13s13 5.9 13 13-5.9 13-13 13-13-5.9-13-13zm24.4 22.5h-23.1v-5.8h23.1v5.8zm-18.6-22.5c0 4 3.2 7.2 7.2 7.2s7.2-3.2 7.2-7.2-3.2-7.2-7.2-7.2-7.2 3.2-7.2 7.2zM175 90.1v21c0 .3 0 3.7-1.8 7.1-2.4 4.8-7 7.5-12.8 7.5s-10.4-2.7-12.8-7.5c-1.7-3.4-1.8-6.8-1.8-7.1v-21H175zm-5.8 20.9V95.9h-17.5V111s0 2.4 1.2 4.7c1.5 2.8 3.9 4 7.5 4 3.7 0 6.1-1.3 7.5-4 1.3-2.3 1.3-4.7 1.3-4.7z"/>
  </g>
  <path fill="#424135" d="M250.4 14.6l-6.9-4V14l-7.7-4.4v3.5h-88.6l-9.6-9.6-4.9 4.9-8.3-8.4-8.4 8.4-4.9-4.9-9.6 9.6H14.6V9.6L6.9 14v-3.4l-6.9 4 6.9 4v-3.4l7.7 4.4v-3.5h86.9l9.6 9.6 4.9-4.9 8.4 8.4 8.4-8.4 4.9 4.9 9.6-9.6h88.6v3.5l7.7-4.4v3.4l6.8-4zm-139.3 6.9l-6.9-6.9 6.9-6.9 2.7 2.7-4.1 4.1 4.1 4.1-2.7 2.9zm2.9-6.9l10.4-10.4 10.4 10.4L124.4 25 114 14.6zm23.6 6.9l-2.7-2.7 4.1-4.1-4.1-4.1 2.7-2.7 6.9 6.9-6.9 6.7zM250.4 150.1l-6.9-4v3.4l-7.7-4.4v3.5h-88.6l-9.6-9.6-4.9 4.9-8.4-8.4-8.4 8.4-4.9-4.9-9.6 9.6H14.6v-3.5l-7.7 4.4v-3.4l-6.9 4 6.9 4v-3.4l7.7 4.4v-3.5h86.9l9.6 9.6 4.9-4.9 8.4 8.4 8.4-8.4 4.9 4.9 9.6-9.6h88.6v3.5l7.7-4.4v3.4l6.8-4zm-139.3 6.8l-6.9-6.9 6.9-6.9 2.7 2.7-4.1 4.1 4.1 4.1-2.7 2.9zm2.9-6.8l10.4-10.4 10.4 10.4-10.4 10.4-10.4-10.4zm23.6 6.8l-2.7-2.7 4.1-4.1-4.1-4.1 2.7-2.7 6.9 6.9-6.9 6.7z"/>
</svg>
