<svg xmlns="http://www.w3.org/2000/svg" viewBox="0 0 172 174.7">
  <g fill="#424135">
    <path d="M17.9 50.5v6.8h8.8v5.3h-8.8v17.5H12V62.6H3.3v-5.3H12v-6.8H3.3V45h23.4v5.5h-8.8zM59.3 45.1v23.4h-5.8v-8.8h-8.8v8.8h-5.9V45.1h5.9v8.8h8.8v-8.8h5.8zm0 29.1H38.9v5.9h20.4v-5.9zM90.5 76H78.2l-1.5 4h-6.3l14-36 14 36H92l-1.5-4zm-10.4-5h8.5l-4.2-12.2L80.1 71zM135.4 45.1v35h-5.9l-8.6-12.4-8.8 12.4h-5.9v-35h5.9L129.6 70V45.1h5.8zm-18 17.6l-5.2-7.5V70l5.2-7.3zM157.4 62.9L172 80.1h-7.7l-10.8-13.3-3.3 3.7v9.6h-5.9v-35h5.9v17.7l14.4-17.7h7.3l-14.5 17.8z"/>
  </g>
  <g fill="#424135">
    <path d="M65.1 95.1L52 113.5V130h-5.8v-16.6L33 95.1h32.1zm-11.3 5.8h-9.5l4.8 6.6 4.7-6.6zM70.9 107.6c0-7.2 5.8-13 13-13s13 5.9 13 13-5.9 13-13 13-13-5.9-13-13zm24.4 22.5H72.2v-5.8h23.1v5.8zm-18.6-22.5c0 4 3.2 7.2 7.2 7.2s7.2-3.2 7.2-7.2-3.2-7.2-7.2-7.2-7.2 3.2-7.2 7.2zM135 95.1v21c0 .3 0 3.7-1.8 7.1-2.4 4.8-7 7.5-12.8 7.5s-10.4-2.7-12.8-7.5c-1.7-3.4-1.8-6.8-1.8-7.1v-21H135zm-5.8 20.9v-15.1h-17.5V116s0 2.4 1.2 4.7c1.5 2.8 3.9 4 7.5 4 3.7 0 6.1-1.3 7.5-4 1.3-2.3 1.3-4.7 1.3-4.7z"/>
  </g>
  <path fill="#424135" d="M170.4 14.6l-6.9-4V14l-7.7-4.4v3.5h-48.6l-9.6-9.6-4.9 4.9L84.4 0 76 8.4l-4.9-4.9-9.6 9.6H14.6V9.6L6.9 14v-3.4l-6.9 4 6.9 4v-3.4l7.7 4.4v-3.5h46.9l9.6 9.6 4.9-4.9 8.4 8.4 8.4-8.4 4.9 4.9 9.6-9.6h48.6v3.5l7.7-4.4v3.4l6.8-4zm-99.3 6.9l-6.9-6.9 6.9-6.9 2.7 2.7-4.1 4.1 4.1 4.1-2.7 2.9zm2.9-6.9L84.4 4.2l10.4 10.4L84.4 25 74 14.6zm23.6 6.9l-2.7-2.7 4.1-4.1-4.1-4.1 2.7-2.7 6.9 6.9-6.9 6.7zM170.4 160.1l-6.9-4v3.4l-7.7-4.4v3.5h-48.6l-9.6-9.6-4.9 4.9-8.4-8.4-8.4 8.4L71 149l-9.6 9.6H14.6v-3.5l-7.7 4.4v-3.4l-6.9 4 6.9 4v-3.4l7.7 4.4v-3.5h46.9l9.6 9.6 4.9-4.9 8.4 8.4 8.4-8.4 4.9 4.9 9.6-9.6h48.6v3.5l7.7-4.4v3.4l6.8-4zm-99.3 6.8l-6.9-6.9 6.9-6.9 2.7 2.7-4.1 4.1 4.1 4.1-2.7 2.9zm2.9-6.8l10.4-10.4 10.4 10.4-10.4 10.4L74 160.1zm23.6 6.8l-2.7-2.7 4.1-4.1-4.1-4.1 2.7-2.7 6.9 6.9-6.9 6.7z"/>
</svg>
